PathFileType	4	(X/Y/Z)	pose_F01_0-94.trc
DataRate	CameraRate	NumFrames	NumMarkers	Units	OrigDataRate	OrigDataStartFrame	OrigNumFrames
30	30	14	21	m	30	0	94
Frame#	Time	CHip			RHip			RKnee			RAnkle			RBigToe			RSmallToe			RHeel			LHip			LKnee			LAnkle			LBigToe			LSmallToe			LHeel			Neck			Nose			RShoulder			RElbow			RWrist			LShoulder			LElbow			LWrist			
		X1	Y1	Z1	X2	Y2	Z2	X3	Y3	Z3	X4	Y4	Z4	X5	Y5	Z5	X6	Y6	Z6	X7	Y7	Z7	X8	Y8	Z8	X9	Y9	Z9	X10	Y10	Z10	X11	Y11	Z11	X12	Y12	Z12	X13	Y13	Z13	X14	Y14	Z14	X15	Y15	Z15	X16	Y16	Z16	X17	Y17	Z17	X18	Y18	Z18	X19	Y19	Z19	X20	Y20	Z20	X21	Y21	Z21	
0	0.0	-0.2327539123252634	1.827653664673633	-0.43758916427314204	-0.2411216866970101	1.8262081921209525	-0.38691456283991527																-0.21603000854139626	1.8300430601392899	-0.49679957779203376	-0.23937997599909785	1.7173009634410286	-0.48997619854701074													-0.22440877653517907	1.979466116250416	-0.45833520060142513	-0.23403243647728877	2.0433184030517504	-0.4875275048478116	-0.24074079312410765	1.9760261914957495	-0.3684719456096441	-0.2493031816884264	1.9035551256589154	-0.32371715082791996	-0.2575628423173863	1.8295509684772042	-0.3269069763356297	-1.664800633173915	1.8910844782115692	1.0557322684421653	-0.1969245306570372	1.8998907947984862	-0.5566208283359284	-0.20127824347624362	1.8337285158009022	-0.5660734566055897
1	0.03333333333333333	-0.23090068282000914	1.8311105990922076	-0.4401974248687972	-0.24110969922428127	1.829141878105272	-0.3874604527615691																-0.21695414838267882	1.8335378219204537	-0.5004995281450236	-0.23937997599909785	1.7173009634410286	-0.48997619854701074													-0.22442207467675537	1.9793426127852107	-0.458380979058087	-0.23303624737225137	2.0432749689645617	-0.4926176508800498	-0.24077860355330585	1.9760020966274399	-0.3685539419650855	-0.2504298644023636	1.901020192889087	-0.3266259746937053	-0.2589018071296733	1.829956473205691	-0.33006142595163773	-1.6636046916634208	1.891111712409193	1.0544827579918032	-0.1968128247622046	1.9017003198385374	-0.5566614920420895	-0.20190562867846196	1.8344774420062646	-0.5692909254557145
2	0.06666666666666667	-0.22904745331475487	1.8345675335107823	-0.44280568546445237	-0.24109771175155245	1.8320755640895914	-0.3880063426832229																-0.21787828822396138	1.8370325837016175	-0.5041994784980135	-0.23937997599909785	1.7173009634410286	-0.48997619854701074													-0.22443537281833167	1.9792191093200056	-0.4584267575147489	-0.23204005826721397	2.043231534877373	-0.49770779691228795	-0.24081641398250406	1.9759780017591302	-0.36863593832052693	-0.25155654711630077	1.8984852601192588	-0.32953479855949064	-0.2602407719419603	1.8303619779341778	-0.33321587556764576	-1.6624087501529268	1.8911389466068167	1.0532332475414412	-0.19670111886737202	1.9035098448785885	-0.5567021557482505	-0.2025330138806803	1.835226368211627	-0.5725083943058392
3	0.1	-0.22901362316734172	1.8342825148141297	-0.4427554742632314	-0.2410775135360543	1.832422858012083	-0.38795047865442656																-0.21785572452049531	1.8368702247673894	-0.5041346790491388	-0.23937997599909785	1.7173009634410286	-0.48997619854701074													-0.22444133787395418	1.9792475421014555	-0.45848748489108526	-0.23199823659832214	2.041899324198733	-0.4973412773539876	-0.24180356419521395	1.976028173049943	-0.37181596132718253	-0.2526969390105634	1.8989066946217479	-0.3329773197045378	-0.25738719485944356	1.8295334470982316	-0.33212138235814354	-1.673594507225445	1.8911062073287315	1.0718373099740837	-0.19667789452884699	1.903430707450587	-0.5568005663721697	-0.2022169655030975	1.8381613121610842	-0.573112779089995
4	0.13333333333333333	-0.22915533402726673	1.833056138914473	-0.44267640763931726	-0.24120878492355144	1.8306313510192336	-0.3878284639247396																-0.21690515266620494	1.8344289360858708	-0.5093636584736043	-0.23937997599909785	1.7173009634410286	-0.48997619854701074													-0.2244326693225538	1.9791174313109028	-0.458532154525597	-0.23201847577246953	2.0415990577283942	-0.4974641587673158	-0.2418340619576661	1.9759812425506333	-0.37180415721252424	-0.2520190201138524	1.8983166806270448	-0.3382768805472798	-0.2573063781258864	1.8319615368337945	-0.3325677340618726	-1.6613504882619843	1.8910530584940526	1.0521902439829478	-0.19479292948897242	1.90190878371786	-0.5588729581233765	-0.19953721875779587	1.8356553076988051	-0.5716516275702824
5	0.16666666666666666	-0.23008188609504304	1.833430206179109	-0.44588192769858137	-0.2412152203304108	1.8309549969043426	-0.38794214030433744																-0.2168339478956537	1.8346529906311533	-0.509447153399172	-0.23937997599909785	1.7173009634410286	-0.48997619854701074													-0.22443506239744548	1.9790239621167764	-0.458555904226859	-0.2301043802827817	2.041595443946852	-0.49963147837905003	-0.24172144632729914	1.9769732513930098	-0.3718962334276231	-0.25209514754432305	1.9001902900674932	-0.33860872966409006	-0.25904390960194745	1.8340951821732916	-0.3359552864533714	-1.6610231331542336	1.8911718844892418	1.0516554529560553	-0.19660686130965188	1.9031790491793872	-0.5568853553003632	-0.19944397791763735	1.8346061126049167	-0.5717310296359133
6	0.2	-0.22791125013287722	1.8335480755313072	-0.44811789387313794	-0.23907651487722914	1.8309860535207356	-0.39010845099274166																-0.2176308129631601	1.8359169829415585	-0.5129275069734464	-0.23937997599909785	1.7173009634410286	-0.48997619854701074													-0.22352233514406905	1.9790973739941495	-0.4637434533531154	-0.23009109870586647	2.041511551221566	-0.4997318873353336	-0.24167114683616242	1.9769979990680153	-0.3719927383164091	-0.25306312204238013	1.8983447479834654	-0.34160608169470624	-0.2595040533053042	1.830355305155219	-0.33890047124891504	-1.6480467826954877	1.8892626134852455	1.0303590782485492	-0.19749424775551452	1.9048397793278666	-0.5599442370952451	-0.1995012565772783	1.8350431476852167	-0.5717721606003727
7	0.23333333333333334	-0.23082061706347523	1.833810865533901	-0.44931785115461265	-0.24012389465814435	1.8307013648440413	-0.39332621337047413																-0.21857619474017886	1.835636925384832	-0.5161502594295174	-0.23937997599909785	1.7173009634410286	-0.48997619854701074													-0.2235074738212196	1.978948517377906	-0.46377906449380835	-0.23100721250252412	2.04175934261903	-0.5026836813104594	-0.24183400582777745	1.9757882266603648	-0.3719986220525628	-0.2532295322056992	1.8968089800213208	-0.341527856781224	-0.25755713600016156	1.8288294479687566	-0.3408892729427882	-1.649574815954772	1.8912136874393568	1.0326777551548436	-0.1955253901913541	1.903791309570305	-0.5621597074940976	-0.2003604843957153	1.8349157160365457	-0.5748524399390603
8	0.26666666666666666	-0.23045700973277425	1.8336478606264952	-0.4545840308979776	-0.2405145438044112	1.8295513570172521	-0.3930989305119846																-0.2170205041693786	1.833619504996478	-0.5180529180920891	-0.23937997599909785	1.7173009634410286	-0.48997619854701074													-0.2234839318198986	1.9790466331245777	-0.46390540623595233	-0.23112308343789642	2.0406558132602948	-0.5027549853287674	-0.24273441420473382	1.977146122945239	-0.37520301394181127	-0.2529440010929757	1.8961329383335608	-0.34143631819294207	-0.2588375059030897	1.8283511736943896	-0.3440153201152483	-1.660974689589532	1.8910359262313967	1.051582973825002	-0.1955232361829771	1.908845377711391	-0.5622704430914316	-0.19831028217910915	1.8385658774781364	-0.5774461416785378
9	0.3	-0.2299454792117053	1.8345358232351012	-0.4549211208179033	-0.24114722190004392	1.8318046493701219	-0.3967027384938525																-0.2166102986886891	1.835682066844903	-0.5184983681042509	-0.23937997599909785	1.7173009634410286	-0.48997619854701074													-0.22255733092331842	1.97892129091249	-0.46924258606616165	-0.2311727082203743	2.040601744508994	-0.502893333658705	-0.24193351118902395	1.9774425299235283	-0.38063428099819957	-0.2522676355722357	1.8971366115375186	-0.3472636001068695	-0.2575862157483669	1.8290631758307179	-0.3411343365169315	-1.6357004152515962	1.8894248712773416	1.0105869442290236	-0.19365877510797508	1.9047316921249775	-0.5645175401878892	-0.1988914412234893	1.835600555378719	-0.5769858191438626
10	0.3333333333333333	-0.2289730353654507	1.8347080153823137	-0.4605023092164598	-0.2411179802192345	1.8323836755123826	-0.3968970445866352																-0.2154983302017447	1.8359546192266238	-0.5238790949924701	-0.23937997599909785	1.7173009634410286	-0.48997619854701074													-0.22251961846136936	1.978797021948634	-0.4695069519385851	-0.23205633418979413	2.039551698951141	-0.5055595075123278	-0.2419036489513737	1.9775491029262284	-0.38083499791500797	-0.2503460640252072	1.8981479766264646	-0.3495884274154628	-0.2585636565035639	1.83139636637382	-0.3447335131530135	-1.6350055517132176	1.8894548043318755	1.0094102571028396	-0.1936219931571872	1.9047136272525542	-0.5646727586397622	-0.19452442618550647	1.8400553858571176	-0.5820971690819375
11	0.36666666666666664	-0.23107279200643405	1.833409880205475	-0.4668213658981507	-0.24052789714555137	1.8318626445241228	-0.40211016044945264																-0.21564317808718125	1.8346154161809978	-0.5238185639785993	-0.23937997599909785	1.7173009634410286	-0.48997619854701074													-0.2205598794754919	1.9792339220912074	-0.4718257111070991	-0.23208007581832493	2.0398105790490626	-0.5056782671754777	-0.2400778875253341	1.9774689081603738	-0.38300563693402057	-0.2504503541369736	1.896890786794558	-0.34964449130686365	-0.2592215466480414	1.8292619116415039	-0.35321791815508463	-1.625134202408415	1.8894613929503123	0.9922146117325039	-0.19413437294337757	1.905602577124916	-0.5764235330251597	-0.19731917143789598	1.8347242809029463	-0.5827327895952376
12	0.4	-0.22915149324022596	1.8325979445450022	-0.4692069637512141	-0.24259423860442825	1.8318128980425425	-0.408875040573484																-0.21576861706581288	1.8326031306992507	-0.5238494631770001	-0.23937997599909785	1.7173009634410286	-0.48997619854701074													-0.21955450917935737	1.9795934648167226	-0.4770459905069898	-0.2350233540690262	2.0393151679987334	-0.51517608844502	-0.24117482653081834	1.9764489992608993	-0.3862545247371188	-0.24978310475354587	1.8934125752512194	-0.354390023121253	-0.2586212245575201	1.828281031361446	-0.35855869043833477	-0.1972861272019982	1.9825756286113678	-0.5659691453490877	-0.19379806881815548	1.9048741187045892	-0.585098019996162	-0.19510279761475274	1.8356069677004436	-0.5854265499929464
13	0.43333333333333335	-0.22992341336966868	1.8336468738790102	-0.4726840683988046	-0.24465065965779517	1.8318309159148707	-0.41553741206802236																-0.21458515446642187	1.8344203721802108	-0.529348537253795	-0.23937997599909785	1.7173009634410286	-0.48997619854701074													-1.7929598874733212	1.8900310288752533	1.2646622269553964	-0.23714967440498627	2.037946963980158	-0.5215869003943397	-0.241464478836745	1.9768788538810138	-0.39489919221266806	-0.24795238362493716	1.89688741618267	-0.3570727961114351	-0.2584908292824428	1.833692569286799	-0.3591068536045021	-1.6136374386800307	1.8893357835311457	0.9730840320012676	-0.19244953222445893	1.907513704697308	-0.5910965627661242	-0.19387149653143146	1.8400687350530276	-0.5912682707677916
